<?xml version="1.0" encoding="iso-8859-1"?>
<!-- Uploaded to: SVG Repo, www.svgrepo.com, Generator: SVG Repo Mixer Tools -->
<svg height="800px" width="800px" version="1.1" id="Layer_1" xmlns="http://www.w3.org/2000/svg" xmlns:xlink="http://www.w3.org/1999/xlink" 
	 viewBox="0 0 512 512" xml:space="preserve">
<g transform="translate(1 1)">
	<g>
		<path style="fill:#00DA6C;" d="M33.133,357.4H152.6l17.067,42.667l17.067-42.667c14.507,0,25.6-11.947,25.6-25.6V212.333
			c0-14.507-11.947-25.6-25.6-25.6h-153.6c-14.507,0-25.6,11.947-25.6,25.6V331.8C7.533,345.453,19.48,357.4,33.133,357.4"/>
		<path style="fill:#00DA6C;" d="M476.867,272.067H357.4l-17.067,42.667l-17.067-42.667c-14.507,0-25.6-11.947-25.6-25.6V127
			c0-14.507,11.947-25.6,25.6-25.6h153.6c14.507,0,25.6,11.947,25.6,25.6v119.467C502.467,260.12,490.52,272.067,476.867,272.067"/>
	</g>
	<path style="fill:#00AD55;" d="M476.867,101.4h-25.6c14.507,0,25.6,11.947,25.6,25.6v119.467c0,14.507-11.947,25.6-25.6,25.6h25.6
		c14.507,0,25.6-11.947,25.6-25.6V127C502.467,113.347,490.52,101.4,476.867,101.4"/>
	<path style="fill:#FFFFFF;" d="M33.133,186.733h25.6c-14.507,0-25.6,11.947-25.6,25.6V331.8c0,14.507,11.947,25.6,25.6,25.6h-25.6
		c-14.507,0-25.6-11.947-25.6-25.6V212.333C7.533,198.68,19.48,186.733,33.133,186.733"/>
	<polygon style="fill:#63D3FD;" points="400.067,161.133 348.867,161.133 348.867,212.333 400.067,212.333 451.267,237.933 
		451.267,135.533 	"/>
	<g>
		<path style="fill:#FFE100;" d="M400.067,101.4V33.133c0-13.653-11.093-25.6-25.6-25.6H152.6c-13.653,0-25.6,11.093-25.6,25.6
			v153.6h59.733c14.507,0,25.6,11.947,25.6,25.6V331.8c0,14.507-11.947,25.6-25.6,25.6l-17.067,42.667L152.6,357.4H127v119.467
			c0,13.653,11.093,25.6,25.6,25.6h221.867c13.653,0,25.6-11.093,25.6-25.6v-204.8H357.4l-17.067,42.667l-17.067-42.667
			c-14.507,0-25.6-11.947-25.6-25.6V127c0-14.507,11.947-25.6,25.6-25.6H400.067z"/>
		<path style="fill:#FFE100;" d="M400.067,101.4V58.733H127v128h59.733c14.507,0,25.6,11.947,25.6,25.6V331.8
			c0,14.507-11.947,25.6-25.6,25.6l-17.067,42.667L152.6,357.4H127v76.8h273.067V272.067H357.4l-17.067,42.667l-17.067-42.667
			c-14.507,0-25.6-11.947-25.6-25.6V127c0-14.507,11.947-25.6,25.6-25.6H400.067z"/>
	</g>
	<g>
		<path style="fill:#63D3FD;" d="M289.133,468.333c0,14.507-11.093,25.6-25.6,25.6c-14.507,0-25.6-11.093-25.6-25.6
			c0-14.507,11.093-25.6,25.6-25.6C278.04,442.733,289.133,453.827,289.133,468.333"/>
		<path style="fill:#63D3FD;" d="M92.867,237.933c0,9.387-7.68,17.067-17.067,17.067s-17.067-7.68-17.067-17.067
			s7.68-17.067,17.067-17.067S92.867,228.547,92.867,237.933"/>
		<path style="fill:#63D3FD;" d="M161.133,306.2c0,9.387-7.68,17.067-17.067,17.067c-9.387,0-17.067-7.68-17.067-17.067
			s7.68-17.067,17.067-17.067C153.453,289.133,161.133,296.813,161.133,306.2"/>
	</g>
	<path d="M297.667,41.667H255c-5.12,0-8.533-3.413-8.533-8.533S249.88,24.6,255,24.6h42.667c5.12,0,8.533,3.413,8.533,8.533
		S302.787,41.667,297.667,41.667z"/>
	<path d="M229.4,41.667h-8.533c-5.12,0-8.533-3.413-8.533-8.533s3.413-8.533,8.533-8.533h8.533c5.12,0,8.533,3.413,8.533,8.533
		S234.52,41.667,229.4,41.667z"/>
	<path d="M118.467,101.4c-5.12,0-8.533-3.413-8.533-8.533v-8.533c0-5.12,3.413-8.533,8.533-8.533S127,79.213,127,84.333v8.533
		C127,97.987,123.587,101.4,118.467,101.4z"/>
	<path d="M118.467,135.533c-5.12,0-8.533-3.413-8.533-8.533v-8.533c0-5.12,3.413-8.533,8.533-8.533s8.533,3.413,8.533,8.533V127
		C127,132.12,123.587,135.533,118.467,135.533z"/>
	<path d="M263.533,502.467c-18.773,0-34.133-15.36-34.133-34.133c0-18.773,15.36-34.133,34.133-34.133s34.133,15.36,34.133,34.133
		C297.667,487.107,282.307,502.467,263.533,502.467z M263.533,451.267c-9.387,0-17.067,7.68-17.067,17.067
		c0,9.387,7.68,17.067,17.067,17.067c9.387,0,17.067-7.68,17.067-17.067C280.6,458.947,272.92,451.267,263.533,451.267z"/>
	<path d="M340.333,323.267c-3.413,0-6.827-1.707-7.68-5.12l-15.36-37.547c-16.213-2.56-28.16-17.067-28.16-34.133V127
		c0-18.773,15.36-34.133,34.133-34.133h153.6C495.64,92.867,511,108.227,511,127v119.467c0,18.773-15.36,34.133-34.133,34.133
		H363.373l-14.507,37.547C347.16,321.56,343.747,323.267,340.333,323.267z M323.267,109.933c-9.387,0-17.067,7.68-17.067,17.067
		v119.467c0,9.387,7.68,17.067,17.067,17.067c3.413,0,6.827,1.707,7.68,5.12l9.387,23.04l9.387-23.04
		c1.707-3.413,4.267-5.12,7.68-5.12h119.467c9.387,0,17.067-7.68,17.067-17.067V127c0-9.387-7.68-17.067-17.067-17.067H323.267z"/>
	<path d="M169.667,408.6c-3.413,0-6.827-1.707-7.68-5.12l-15.36-37.547H33.133C14.36,365.933-1,350.573-1,331.8V212.333
		C-1,193.56,14.36,178.2,33.133,178.2h153.6c18.773,0,34.133,15.36,34.133,34.133V331.8c0,17.067-11.947,30.72-28.16,34.133
		l-15.36,37.547C175.64,406.893,173.08,408.6,169.667,408.6z M33.133,195.267c-9.387,0-17.067,7.68-17.067,17.067V331.8
		c0,9.387,7.68,17.067,17.067,17.067H152.6c3.413,0,6.827,1.707,7.68,5.12l9.387,23.04l9.387-23.04
		c1.707-3.413,4.267-5.12,7.68-5.12c9.387,0,17.067-7.68,17.067-17.067V212.333c0-9.387-7.68-17.067-17.067-17.067H33.133z"/>
	<path d="M374.467,511H152.6c-18.773,0-34.133-15.36-34.133-34.133V357.4c0-5.12,3.413-8.533,8.533-8.533h25.6
		c3.413,0,6.827,1.707,7.68,5.12l9.387,23.04l9.387-23.04c1.707-3.413,4.267-5.12,7.68-5.12c9.387,0,17.067-7.68,17.067-17.067
		V212.333c0-9.387-7.68-17.067-17.067-17.067H127c-5.12,0-8.533-3.413-8.533-8.533v-153.6C118.467,14.36,133.827-1,152.6-1h221.867
		C393.24-1,408.6,14.36,408.6,33.133V101.4c0,5.12-3.413,8.533-8.533,8.533h-76.8c-9.387,0-17.067,7.68-17.067,17.067v119.467
		c0,9.387,7.68,17.067,17.067,17.067c3.413,0,6.827,1.707,7.68,5.12l9.387,23.04l9.387-23.04c1.707-3.413,4.267-5.12,7.68-5.12
		h42.667c5.12,0,8.533,3.413,8.533,8.533v204.8C408.6,495.64,393.24,511,374.467,511z M135.533,365.933v110.933
		c0,9.387,7.68,17.067,17.067,17.067h221.867c9.387,0,17.067-7.68,17.067-17.067V280.6h-28.16l-14.507,37.547
		c-1.707,3.413-5.12,5.12-8.533,5.12c-3.413,0-6.827-1.707-7.68-5.12l-15.36-37.547c-16.213-2.56-28.16-17.067-28.16-34.133V127
		c0-18.773,15.36-34.133,34.133-34.133h68.267V33.133c0-9.387-7.68-17.067-17.067-17.067H152.6c-9.387,0-17.067,7.68-17.067,17.067
		V178.2h51.2c18.773,0,34.133,15.36,34.133,34.133V331.8c0,17.067-11.947,30.72-28.16,34.133l-15.36,37.547
		c-1.707,3.413-4.267,5.12-7.68,5.12s-6.827-1.707-7.68-5.12l-15.36-37.547H135.533z"/>
	<path d="M400.067,442.733H127c-5.12,0-8.533-3.413-8.533-8.533v-76.8c0-5.12,3.413-8.533,8.533-8.533h25.6
		c3.413,0,6.827,1.707,7.68,5.12l9.387,23.04l9.387-23.04c1.707-3.413,4.267-5.12,7.68-5.12c9.387,0,17.067-7.68,17.067-17.067
		V212.333c0-9.387-7.68-17.067-17.067-17.067H127c-5.12,0-8.533-3.413-8.533-8.533v-128c0-5.12,3.413-8.533,8.533-8.533h273.067
		c5.12,0,8.533,3.413,8.533,8.533V101.4c0,5.12-3.413,8.533-8.533,8.533h-76.8c-9.387,0-17.067,7.68-17.067,17.067v119.467
		c0,9.387,7.68,17.067,17.067,17.067c3.413,0,6.827,1.707,7.68,5.12l9.387,23.04l9.387-23.04c1.707-3.413,4.267-5.12,7.68-5.12
		h42.667c5.12,0,8.533,3.413,8.533,8.533V434.2C408.6,439.32,405.187,442.733,400.067,442.733z M135.533,425.667h256V280.6h-28.16
		l-14.507,37.547c-1.707,3.413-5.12,5.12-8.533,5.12c-3.413,0-6.827-1.707-7.68-5.12l-15.36-37.547
		c-16.213-2.56-28.16-17.067-28.16-34.133V127c0-18.773,15.36-34.133,34.133-34.133h68.267v-25.6h-256V178.2h51.2
		c18.773,0,34.133,15.36,34.133,34.133V331.8c0,17.067-11.947,30.72-28.16,34.133l-15.36,37.547c-1.707,3.413-4.267,5.12-7.68,5.12
		s-6.827-1.707-7.68-5.12l-15.36-37.547h-11.093V425.667z"/>
	<path d="M58.733,331.8c-2.56,0-4.267-0.853-5.973-2.56c-3.413-3.413-3.413-8.533,0-11.947l102.4-102.4
		c3.413-3.413,8.533-3.413,11.947,0s3.413,8.533,0,11.947l-102.4,102.4C63,330.947,61.293,331.8,58.733,331.8z"/>
	<path d="M75.8,263.533c-14.507,0-25.6-11.093-25.6-25.6c0-14.507,11.093-25.6,25.6-25.6s25.6,11.093,25.6,25.6
		C101.4,252.44,90.307,263.533,75.8,263.533z M75.8,229.4c-5.12,0-8.533,3.413-8.533,8.533c0,5.12,3.413,8.533,8.533,8.533
		c5.12,0,8.533-3.413,8.533-8.533C84.333,232.813,80.92,229.4,75.8,229.4z"/>
	<path d="M144.067,331.8c-14.507,0-25.6-11.093-25.6-25.6s11.093-25.6,25.6-25.6s25.6,11.093,25.6,25.6S158.573,331.8,144.067,331.8
		z M144.067,297.667c-5.12,0-8.533,3.413-8.533,8.533s3.413,8.533,8.533,8.533c5.12,0,8.533-3.413,8.533-8.533
		S149.187,297.667,144.067,297.667z"/>
	<path d="M451.267,246.467c-1.707,0-2.56,0-3.413-0.853l-49.493-24.747h-49.493c-5.12,0-8.533-3.413-8.533-8.533v-51.2
		c0-5.12,3.413-8.533,8.533-8.533h49.493l49.493-24.747c2.56-1.707,5.973-0.853,8.533,0c2.56,1.707,4.267,4.267,4.267,7.68v102.4
		c0,2.56-1.707,5.973-4.267,7.68C454.68,245.613,452.973,246.467,451.267,246.467z M357.4,203.8h42.667c1.707,0,2.56,0,3.413,0.853
		l39.253,19.627v-75.093l-39.253,19.627c-0.853,0.853-1.707,0.853-3.413,0.853H357.4V203.8z"/>
</g>
</svg>